<?xml version="1.0" standalone="no"?>
<!DOCTYPE svg PUBLIC "-//W3C//DTD SVG 20010904//EN"
 "http://www.w3.org/TR/2001/REC-SVG-20010904/DTD/svg10.dtd">
<svg version="1.0" xmlns="http://www.w3.org/2000/svg"
 width="510.000000pt" height="660.000000pt" viewBox="0 0 510.000000 660.000000"
 preserveAspectRatio="xMidYMid meet">
<metadata>
Created by potrace 1.15, written by Peter Selinger 2001-2017
</metadata>
<g transform="translate(0.000000,660.000000) scale(0.100000,-0.100000)"
fill="#000000" stroke="none">
<path d="M10 3765 l0 -2835 118 0 c198 0 469 39 677 96 88 24 460 141 540 169
67 24 234 64 350 85 152 27 401 28 546 0 219 -41 347 -89 666 -249 329 -165
503 -211 804 -211 228 0 430 26 699 91 102 25 414 124 545 173 l140 52 3 2732
2 2732 -2545 0 -2545 0 0 -2835z m2720 667 c30 -12 81 -43 113 -69 l58 -47
-161 -160 -160 -161 -160 160 -160 159 28 29 c34 36 101 76 167 100 67 24 198
18 275 -11z m-457 -239 c-30 -73 11 -158 92 -188 40 -16 49 -16 89 -3 l45 15
40 -41 41 -40 47 46 c38 37 52 44 68 38 40 -17 101 -11 136 13 58 39 86 126
58 179 -8 16 -8 24 4 35 12 12 17 8 36 -37 70 -164 37 -326 -91 -445 -155
-144 -385 -136 -537 18 -82 83 -126 224 -104 332 7 30 21 76 33 101 19 45 21
46 39 30 18 -16 18 -20 4 -53z m-143 -109 c0 -83 23 -174 62 -241 20 -36 25
-53 16 -53 -7 0 -53 5 -103 11 -241 30 -440 131 -515 263 -53 92 -70 86 255
86 l285 0 0 -66z m1470 54 c-1 -34 -45 -105 -97 -155 -97 -95 -291 -170 -486
-188 l-78 -7 35 68 c39 79 60 168 55 243 l-4 51 288 0 c223 0 287 -3 287 -12z
m-1901 -731 c14 -6 34 -17 43 -25 16 -13 16 -16 1 -36 l-16 -22 -45 23 c-70
36 -130 28 -185 -25 -58 -55 -56 -143 4 -203 44 -44 95 -56 154 -36 40 14 40
14 45 73 5 55 7 59 33 62 l27 3 0 -79 0 -80 -47 -22 c-103 -48 -235 -18 -292
66 -29 42 -40 133 -22 186 17 51 81 108 138 124 50 14 117 10 162 -9z m971 -7
c94 -48 135 -161 95 -258 -34 -80 -106 -125 -200 -125 -126 0 -215 86 -215
208 0 153 176 249 320 175z m428 15 c28 -9 54 -20 57 -25 5 -8 -8 -43 -20 -58
-2 -2 -16 3 -32 11 -43 22 -89 27 -123 15 -27 -9 -31 -14 -28 -42 3 -28 9 -33
63 -54 100 -38 127 -55 142 -89 51 -124 -115 -201 -264 -124 -45 22 -51 36
-30 64 11 16 16 15 61 -8 80 -40 166 -30 166 20 0 28 -38 61 -83 71 -47 10
-103 41 -121 66 -24 34 -20 82 10 117 42 50 112 62 202 36z m625 -8 c35 -15
35 -16 24 -46 -8 -22 -16 -30 -27 -25 -86 36 -152 37 -171 2 -16 -29 11 -62
62 -77 57 -17 121 -50 136 -70 17 -23 16 -92 -3 -119 -41 -59 -155 -73 -242
-31 -50 26 -60 44 -39 72 12 17 15 17 57 -7 75 -43 170 -29 170 24 0 26 -28
45 -100 69 -73 24 -91 36 -108 68 -23 42 -10 101 27 130 44 35 143 39 214 10z
m-1657 -132 l109 -146 3 146 3 145 29 0 30 0 0 -200 0 -200 -34 0 c-33 0 -40
7 -143 147 l-108 147 -3 -147 -3 -147 -29 0 -30 0 0 200 0 200 34 0 c32 0 40
-8 142 -145z m1274 -55 l0 -200 -30 0 -30 0 0 200 0 200 30 0 30 0 0 -200z
m-1929 -515 c18 -58 35 -102 38 -99 3 3 20 49 36 102 17 52 35 97 42 99 7 3
24 -37 44 -102 18 -58 34 -103 37 -100 3 3 19 48 36 102 17 53 37 98 43 100 7
3 -6 -49 -29 -117 -22 -68 -45 -119 -51 -117 -6 2 -26 50 -45 106 l-34 103
-35 -107 c-20 -61 -39 -105 -45 -103 -11 4 -86 199 -87 226 -1 6 3 12 8 12 5
0 24 -47 42 -105z m1333 82 c34 -23 36 -80 4 -114 -17 -18 -32 -23 -75 -23
l-53 0 0 -40 c0 -22 -4 -40 -10 -40 -6 0 -10 47 -10 121 l0 121 59 -4 c32 -2
70 -12 85 -21z m231 -100 c34 -76 48 -117 40 -117 -7 0 -18 14 -24 30 -10 30
-11 30 -81 30 -70 0 -71 0 -81 -30 -6 -16 -17 -30 -24 -30 -10 0 -5 20 17 67
17 37 41 92 54 121 13 30 29 52 35 50 6 -2 35 -56 64 -121z m261 102 c26 -21
34 -55 23 -89 -14 -39 -36 -50 -98 -50 l-51 0 0 -40 c0 -22 -4 -40 -10 -40 -6
0 -10 47 -10 121 l0 122 65 -5 c36 -3 72 -12 81 -19z m478 -2 c37 -25 37 -87
0 -116 l-26 -21 26 -34 c28 -38 31 -46 16 -46 -5 0 -22 18 -37 40 -24 38 -29
41 -67 38 -40 -3 -41 -4 -44 -40 -2 -21 -7 -38 -13 -38 -11 0 -13 223 -1 234
12 13 118 1 146 -17z"/>
<path d="M2502 4420 c-51 -11 -118 -43 -158 -76 l-29 -23 135 -135 135 -136
127 127 c71 70 128 132 127 138 -1 18 -59 57 -122 83 -68 27 -150 36 -215 22z"/>
<path d="M2500 3348 c-130 -67 -99 -251 46 -273 53 -8 121 27 146 75 67 129
-63 264 -192 198z"/>
<path d="M3580 2730 l0 -60 54 0 c63 0 86 16 86 60 0 39 -32 60 -92 60 l-48 0
0 -60z"/>
<path d="M1678 489 c-29 -17 -20 -28 17 -22 26 4 35 2 35 -9 0 -8 -16 -29 -35
-48 -56 -54 -50 -59 75 -59 90 0 110 3 110 14 0 10 -11 15 -32 15 l-32 0 28
29 c45 47 22 102 -37 87 -42 -10 -35 -36 8 -29 45 7 45 -6 -1 -57 -31 -34 -40
-38 -67 -33 -18 3 -34 7 -36 9 -2 2 8 17 23 34 31 37 33 56 7 70 -24 12 -41
12 -63 -1z"/>
<path d="M1960 425 l0 -75 40 0 c30 0 47 7 65 25 51 51 13 125 -65 125 l-40 0
0 -75z"/>
<path d="M3157 482 c-23 -26 -22 -94 1 -115 25 -23 58 -21 83 4 17 17 20 29
16 62 -9 63 -64 89 -100 49z"/>
</g>
</svg>
